<svg xmlns="http://www.w3.org/2000/svg" xmlns:xlink="http://www.w3.org/1999/xlink" width="200" zoomAndPan="magnify" viewBox="0 0 150 37.5" height="50" preserveAspectRatio="xMidYMid meet" version="1.0"><defs><filter x="0%" y="0%" width="100%" height="100%" id="09ac863dbb"><feColorMatrix values="0 0 0 0 1 0 0 0 0 1 0 0 0 0 1 0 0 0 1 0" color-interpolation-filters="sRGB"/></filter><g/><clipPath id="597c3bc47f"><path d="M 2.847656 1.164062 L 42.421875 1.164062 L 42.421875 35.839844 L 2.847656 35.839844 Z M 2.847656 1.164062 " clip-rule="nonzero"/></clipPath><clipPath id="17f617eb07"><path d="M 2.847656 11.394531 C 2.847656 22.410156 22.613281 35.839844 22.613281 35.839844 C 22.613281 35.839844 42.292969 22.3125 42.378906 11.394531 C 42.378906 5.757812 37.785156 1.164062 32.148438 1.164062 C 27.816406 1.164062 24.085938 3.941406 22.613281 7.75 C 21.144531 3.941406 17.410156 1.164062 13.078125 1.164062 C 7.441406 1.164062 2.847656 5.757812 2.847656 11.394531 " clip-rule="nonzero"/></clipPath><mask id="8d23c9b8d6"><g filter="url(#09ac863dbb)"><rect x="-15" width="180" fill="#000000" y="-3.75" height="45" fill-opacity="0.82"/></g></mask><clipPath id="5b39311ead"><path d="M 0.882812 0.246094 L 32.378906 0.246094 L 32.378906 27.839844 L 0.882812 27.839844 Z M 0.882812 0.246094 " clip-rule="nonzero"/></clipPath><clipPath id="8f68e3632f"><path d="M 0.882812 8.386719 C 0.882812 17.152344 16.613281 27.839844 16.613281 27.839844 C 16.613281 27.839844 32.273438 17.074219 32.34375 8.386719 C 32.34375 3.898438 28.6875 0.246094 24.203125 0.246094 C 20.753906 0.246094 17.785156 2.453125 16.613281 5.484375 C 15.445312 2.453125 12.472656 0.246094 9.027344 0.246094 C 4.539062 0.246094 0.882812 3.898438 0.882812 8.386719 " clip-rule="nonzero"/></clipPath><clipPath id="463051ee7b"><rect x="0" width="33" y="0" height="28"/></clipPath><clipPath id="be8bd83854"><path d="M 2.847656 14.363281 L 24.324219 14.363281 L 24.324219 35.839844 L 2.847656 35.839844 Z M 2.847656 14.363281 " clip-rule="nonzero"/></clipPath><clipPath id="d79d74f64a"><path d="M 17.128906 14.363281 L 10.046875 14.363281 C 9.777344 14.363281 9.558594 14.582031 9.558594 14.851562 L 9.558594 20.589844 C 9.558594 20.859375 9.34375 21.074219 9.074219 21.074219 L 3.335938 21.074219 C 3.066406 21.074219 2.847656 21.292969 2.847656 21.5625 L 2.847656 28.644531 C 2.847656 28.910156 3.066406 29.128906 3.335938 29.128906 L 9.074219 29.128906 C 9.34375 29.128906 9.558594 29.347656 9.558594 29.617188 L 9.558594 35.355469 C 9.558594 35.625 9.777344 35.839844 10.046875 35.839844 L 17.128906 35.839844 C 17.398438 35.839844 17.613281 35.625 17.613281 35.355469 L 17.613281 29.617188 C 17.613281 29.347656 17.832031 29.128906 18.101562 29.128906 L 23.839844 29.128906 C 24.109375 29.128906 24.324219 28.910156 24.324219 28.644531 L 24.324219 21.5625 C 24.324219 21.292969 24.109375 21.074219 23.839844 21.074219 L 18.101562 21.074219 C 17.832031 21.074219 17.613281 20.859375 17.613281 20.589844 L 17.613281 14.851562 C 17.613281 14.582031 17.398438 14.363281 17.128906 14.363281 Z M 17.128906 14.363281 " clip-rule="nonzero"/></clipPath></defs><g clip-path="url(#597c3bc47f)"><g clip-path="url(#17f617eb07)"><path fill="#64ebb6" d="M 2.847656 1.164062 L 42.34375 1.164062 L 42.34375 35.839844 L 2.847656 35.839844 Z M 2.847656 1.164062 " fill-opacity="1" fill-rule="nonzero"/></g></g><g mask="url(#8d23c9b8d6)"><g transform="matrix(1, 0, 0, 1, 6, 8)"><g clip-path="url(#463051ee7b)"><g clip-path="url(#5b39311ead)"><g clip-path="url(#8f68e3632f)"><path fill="#1b9ce4" d="M 0.882812 0.246094 L 32.316406 0.246094 L 32.316406 27.839844 L 0.882812 27.839844 Z M 0.882812 0.246094 " fill-opacity="1" fill-rule="nonzero"/></g></g></g></g></g><g clip-path="url(#be8bd83854)"><g clip-path="url(#d79d74f64a)"><path fill="#ffffff" d="M 2.847656 14.363281 L 24.324219 14.363281 L 24.324219 35.839844 L 2.847656 35.839844 Z M 2.847656 14.363281 " fill-opacity="1" fill-rule="nonzero"/></g></g><g fill="#ffffff" fill-opacity="1"><g transform="translate(46.056382, 24.621493)"><g><path d="M 1.15625 0 L 1.15625 -12.953125 L 5.140625 -12.953125 C 6.273438 -12.953125 7.289062 -12.691406 8.1875 -12.171875 C 9.09375 -11.660156 9.796875 -10.929688 10.296875 -9.984375 C 10.804688 -9.046875 11.0625 -7.972656 11.0625 -6.765625 L 11.0625 -6.171875 C 11.0625 -4.972656 10.8125 -3.90625 10.3125 -2.96875 C 9.820312 -2.03125 9.125 -1.300781 8.21875 -0.78125 C 7.320312 -0.269531 6.304688 -0.0078125 5.171875 0 Z M 3.828125 -10.796875 L 3.828125 -2.140625 L 5.109375 -2.140625 C 6.160156 -2.140625 6.957031 -2.476562 7.5 -3.15625 C 8.050781 -3.84375 8.335938 -4.820312 8.359375 -6.09375 L 8.359375 -6.78125 C 8.359375 -8.09375 8.082031 -9.085938 7.53125 -9.765625 C 6.988281 -10.453125 6.191406 -10.796875 5.140625 -10.796875 Z M 3.828125 -10.796875 "/></g></g></g><g fill="#ffffff" fill-opacity="1"><g transform="translate(57.899949, 24.621493)"><g><path d="M 3.703125 0 L 1.125 0 L 1.125 -9.625 L 3.703125 -9.625 Z M 0.96875 -12.109375 C 0.96875 -12.492188 1.097656 -12.8125 1.359375 -13.0625 C 1.617188 -13.3125 1.96875 -13.4375 2.40625 -13.4375 C 2.84375 -13.4375 3.191406 -13.3125 3.453125 -13.0625 C 3.722656 -12.8125 3.859375 -12.492188 3.859375 -12.109375 C 3.859375 -11.722656 3.722656 -11.40625 3.453125 -11.15625 C 3.191406 -10.90625 2.84375 -10.78125 2.40625 -10.78125 C 1.976562 -10.78125 1.628906 -10.90625 1.359375 -11.15625 C 1.097656 -11.40625 0.96875 -11.722656 0.96875 -12.109375 Z M 0.96875 -12.109375 "/></g></g></g><g fill="#ffffff" fill-opacity="1"><g transform="translate(62.731698, 24.621493)"><g><path d="M 6.5625 0 C 6.445312 -0.226562 6.363281 -0.515625 6.3125 -0.859375 C 5.6875 -0.171875 4.875 0.171875 3.875 0.171875 C 2.9375 0.171875 2.15625 -0.0976562 1.53125 -0.640625 C 0.914062 -1.179688 0.609375 -1.867188 0.609375 -2.703125 C 0.609375 -3.722656 0.984375 -4.503906 1.734375 -5.046875 C 2.492188 -5.597656 3.585938 -5.875 5.015625 -5.875 L 6.203125 -5.875 L 6.203125 -6.4375 C 6.203125 -6.875 6.085938 -7.226562 5.859375 -7.5 C 5.628906 -7.769531 5.269531 -7.90625 4.78125 -7.90625 C 4.34375 -7.90625 4 -7.800781 3.75 -7.59375 C 3.507812 -7.382812 3.390625 -7.097656 3.390625 -6.734375 L 0.8125 -6.734375 C 0.8125 -7.296875 0.984375 -7.8125 1.328125 -8.28125 C 1.671875 -8.757812 2.15625 -9.128906 2.78125 -9.390625 C 3.414062 -9.660156 4.125 -9.796875 4.90625 -9.796875 C 6.09375 -9.796875 7.035156 -9.5 7.734375 -8.90625 C 8.429688 -8.3125 8.78125 -7.472656 8.78125 -6.390625 L 8.78125 -2.21875 C 8.789062 -1.3125 8.914062 -0.625 9.15625 -0.15625 L 9.15625 0 Z M 4.4375 -1.78125 C 4.820312 -1.78125 5.171875 -1.863281 5.484375 -2.03125 C 5.804688 -2.207031 6.046875 -2.4375 6.203125 -2.71875 L 6.203125 -4.375 L 5.234375 -4.375 C 3.953125 -4.375 3.269531 -3.929688 3.1875 -3.046875 L 3.171875 -2.890625 C 3.171875 -2.566406 3.285156 -2.300781 3.515625 -2.09375 C 3.742188 -1.882812 4.050781 -1.78125 4.4375 -1.78125 Z M 4.4375 -1.78125 "/></g></g></g><g fill="#ffffff" fill-opacity="1"><g transform="translate(72.501973, 24.621493)"><g><path d="M 9.65625 -4.71875 C 9.65625 -3.175781 9.328125 -1.972656 8.671875 -1.109375 C 8.015625 -0.253906 7.097656 0.171875 5.921875 0.171875 C 4.867188 0.171875 4.035156 -0.222656 3.421875 -1.015625 L 3.296875 0 L 0.984375 0 L 0.984375 -13.671875 L 3.5625 -13.671875 L 3.5625 -8.765625 C 4.15625 -9.453125 4.929688 -9.796875 5.890625 -9.796875 C 7.066406 -9.796875 7.988281 -9.363281 8.65625 -8.5 C 9.320312 -7.644531 9.65625 -6.429688 9.65625 -4.859375 Z M 7.09375 -4.90625 C 7.09375 -5.882812 6.9375 -6.597656 6.625 -7.046875 C 6.320312 -7.492188 5.863281 -7.71875 5.25 -7.71875 C 4.425781 -7.71875 3.863281 -7.378906 3.5625 -6.703125 L 3.5625 -2.90625 C 3.875 -2.226562 4.441406 -1.890625 5.265625 -1.890625 C 6.097656 -1.890625 6.644531 -2.300781 6.90625 -3.125 C 7.03125 -3.507812 7.09375 -4.101562 7.09375 -4.90625 Z M 7.09375 -4.90625 "/></g></g></g><g fill="#64ebb6" fill-opacity="1"><g transform="translate(82.762063, 24.621493)"><g><path d="M 11.328125 -4.3125 C 11.222656 -2.914062 10.707031 -1.816406 9.78125 -1.015625 C 8.851562 -0.222656 7.628906 0.171875 6.109375 0.171875 C 4.453125 0.171875 3.144531 -0.382812 2.1875 -1.5 C 1.238281 -2.613281 0.765625 -4.148438 0.765625 -6.109375 L 0.765625 -6.890625 C 0.765625 -8.140625 0.984375 -9.238281 1.421875 -10.1875 C 1.859375 -11.132812 2.484375 -11.859375 3.296875 -12.359375 C 4.117188 -12.867188 5.066406 -13.125 6.140625 -13.125 C 7.640625 -13.125 8.84375 -12.722656 9.75 -11.921875 C 10.664062 -11.128906 11.195312 -10.007812 11.34375 -8.5625 L 8.671875 -8.5625 C 8.609375 -9.394531 8.375 -10 7.96875 -10.375 C 7.570312 -10.75 6.960938 -10.9375 6.140625 -10.9375 C 5.253906 -10.9375 4.585938 -10.617188 4.140625 -9.984375 C 3.703125 -9.347656 3.476562 -8.359375 3.46875 -7.015625 L 3.46875 -6.046875 C 3.46875 -4.640625 3.675781 -3.613281 4.09375 -2.96875 C 4.519531 -2.320312 5.191406 -2 6.109375 -2 C 6.929688 -2 7.546875 -2.1875 7.953125 -2.5625 C 8.359375 -2.9375 8.59375 -3.519531 8.65625 -4.3125 Z M 11.328125 -4.3125 "/></g></g></g><g fill="#64ebb6" fill-opacity="1"><g transform="translate(94.685713, 24.621493)"><g><path d="M 0.59375 -4.90625 C 0.59375 -5.851562 0.773438 -6.703125 1.140625 -7.453125 C 1.503906 -8.203125 2.03125 -8.78125 2.71875 -9.1875 C 3.414062 -9.59375 4.222656 -9.796875 5.140625 -9.796875 C 6.429688 -9.796875 7.488281 -9.398438 8.3125 -8.609375 C 9.132812 -7.816406 9.59375 -6.738281 9.6875 -5.375 L 9.703125 -4.71875 C 9.703125 -3.238281 9.289062 -2.050781 8.46875 -1.15625 C 7.644531 -0.269531 6.535156 0.171875 5.140625 0.171875 C 3.753906 0.171875 2.648438 -0.269531 1.828125 -1.15625 C 1.003906 -2.039062 0.59375 -3.25 0.59375 -4.78125 Z M 3.15625 -4.71875 C 3.15625 -3.800781 3.328125 -3.097656 3.671875 -2.609375 C 4.015625 -2.128906 4.507812 -1.890625 5.15625 -1.890625 C 5.769531 -1.890625 6.253906 -2.128906 6.609375 -2.609375 C 6.960938 -3.085938 7.140625 -3.851562 7.140625 -4.90625 C 7.140625 -5.800781 6.960938 -6.492188 6.609375 -6.984375 C 6.253906 -7.472656 5.765625 -7.71875 5.140625 -7.71875 C 4.503906 -7.71875 4.015625 -7.472656 3.671875 -6.984375 C 3.328125 -6.492188 3.15625 -5.738281 3.15625 -4.71875 Z M 3.15625 -4.71875 "/></g></g></g><g fill="#64ebb6" fill-opacity="1"><g transform="translate(104.989882, 24.621493)"><g><path d="M 3.359375 -9.625 L 3.4375 -8.515625 C 4.125 -9.367188 5.046875 -9.796875 6.203125 -9.796875 C 7.222656 -9.796875 7.976562 -9.492188 8.46875 -8.890625 C 8.96875 -8.296875 9.226562 -7.40625 9.25 -6.21875 L 9.25 0 L 6.671875 0 L 6.671875 -6.15625 C 6.671875 -6.695312 6.550781 -7.09375 6.3125 -7.34375 C 6.070312 -7.59375 5.679688 -7.71875 5.140625 -7.71875 C 4.410156 -7.71875 3.863281 -7.40625 3.5 -6.78125 L 3.5 0 L 0.9375 0 L 0.9375 -9.625 Z M 3.359375 -9.625 "/></g></g></g><g fill="#64ebb6" fill-opacity="1"><g transform="translate(115.196172, 24.621493)"><g><path d="M 4.0625 -11.984375 L 4.0625 -9.625 L 5.71875 -9.625 L 5.71875 -7.734375 L 4.0625 -7.734375 L 4.0625 -2.9375 C 4.0625 -2.582031 4.128906 -2.328125 4.265625 -2.171875 C 4.398438 -2.015625 4.660156 -1.9375 5.046875 -1.9375 C 5.335938 -1.9375 5.59375 -1.957031 5.8125 -2 L 5.8125 -0.046875 C 5.300781 0.0976562 4.78125 0.171875 4.25 0.171875 C 2.445312 0.171875 1.53125 -0.734375 1.5 -2.546875 L 1.5 -7.734375 L 0.09375 -7.734375 L 0.09375 -9.625 L 1.5 -9.625 L 1.5 -11.984375 Z M 4.0625 -11.984375 "/></g></g></g><g fill="#64ebb6" fill-opacity="1"><g transform="translate(121.353758, 24.621493)"><g><path d="M 6.390625 -7.21875 C 6.046875 -7.257812 5.738281 -7.28125 5.46875 -7.28125 C 4.5 -7.28125 3.863281 -6.953125 3.5625 -6.296875 L 3.5625 0 L 0.984375 0 L 0.984375 -9.625 L 3.421875 -9.625 L 3.484375 -8.484375 C 4.003906 -9.359375 4.71875 -9.796875 5.625 -9.796875 C 5.914062 -9.796875 6.1875 -9.757812 6.4375 -9.6875 Z M 6.390625 -7.21875 "/></g></g></g><g fill="#64ebb6" fill-opacity="1"><g transform="translate(128.000749, 24.621493)"><g><path d="M 0.59375 -4.90625 C 0.59375 -5.851562 0.773438 -6.703125 1.140625 -7.453125 C 1.503906 -8.203125 2.03125 -8.78125 2.71875 -9.1875 C 3.414062 -9.59375 4.222656 -9.796875 5.140625 -9.796875 C 6.429688 -9.796875 7.488281 -9.398438 8.3125 -8.609375 C 9.132812 -7.816406 9.59375 -6.738281 9.6875 -5.375 L 9.703125 -4.71875 C 9.703125 -3.238281 9.289062 -2.050781 8.46875 -1.15625 C 7.644531 -0.269531 6.535156 0.171875 5.140625 0.171875 C 3.753906 0.171875 2.648438 -0.269531 1.828125 -1.15625 C 1.003906 -2.039062 0.59375 -3.25 0.59375 -4.78125 Z M 3.15625 -4.71875 C 3.15625 -3.800781 3.328125 -3.097656 3.671875 -2.609375 C 4.015625 -2.128906 4.507812 -1.890625 5.15625 -1.890625 C 5.769531 -1.890625 6.253906 -2.128906 6.609375 -2.609375 C 6.960938 -3.085938 7.140625 -3.851562 7.140625 -4.90625 C 7.140625 -5.800781 6.960938 -6.492188 6.609375 -6.984375 C 6.253906 -7.472656 5.765625 -7.71875 5.140625 -7.71875 C 4.503906 -7.71875 4.015625 -7.472656 3.671875 -6.984375 C 3.328125 -6.492188 3.15625 -5.738281 3.15625 -4.71875 Z M 3.15625 -4.71875 "/></g></g></g><g fill="#64ebb6" fill-opacity="1"><g transform="translate(138.304918, 24.621493)"><g><path d="M 3.703125 0 L 1.125 0 L 1.125 -13.671875 L 3.703125 -13.671875 Z M 3.703125 0 "/></g></g></g></svg>