<svg xmlns="http://www.w3.org/2000/svg" xmlns:xlink="http://www.w3.org/1999/xlink" width="500" zoomAndPan="magnify" viewBox="0 0 375 374.999991" height="500" preserveAspectRatio="xMidYMid meet" version="1.0"><defs><filter x="0%" y="0%" width="100%" height="100%" id="13421c7e31"><feColorMatrix values="0 0 0 0 1 0 0 0 0 1 0 0 0 0 1 0 0 0 1 0" color-interpolation-filters="sRGB"/></filter><g/><clipPath id="5c10c1e136"><path d="M 64.160156 34.386719 L 311 34.386719 L 311 250.777344 L 64.160156 250.777344 Z M 64.160156 34.386719 " clip-rule="nonzero"/></clipPath><clipPath id="4465c04dc1"><path d="M 64.160156 98.230469 C 64.160156 166.953125 187.5 250.777344 187.5 250.777344 C 187.5 250.777344 310.300781 166.363281 310.839844 98.230469 C 310.839844 63.050781 282.175781 34.386719 247 34.386719 C 219.964844 34.386719 196.675781 51.703125 187.5 75.484375 C 178.324219 51.703125 155.035156 34.386719 128 34.386719 C 92.824219 34.386719 64.160156 63.050781 64.160156 98.230469 " clip-rule="nonzero"/></clipPath><mask id="918a4f8e87"><g filter="url(#13421c7e31)"><rect x="-37.5" width="450" fill="#000000" y="-37.499999" height="449.999989" fill-opacity="0.82"/></g></mask><clipPath id="4549183a3f"><path d="M 0.339844 0.5625 L 196.875 0.5625 L 196.875 172.777344 L 0.339844 172.777344 Z M 0.339844 0.5625 " clip-rule="nonzero"/></clipPath><clipPath id="d347918890"><path d="M 0.339844 51.371094 C 0.339844 106.066406 98.5 172.777344 98.5 172.777344 C 98.5 172.777344 196.230469 105.597656 196.660156 51.371094 C 196.660156 23.375 173.847656 0.5625 145.851562 0.5625 C 124.335938 0.5625 105.804688 14.347656 98.5 33.273438 C 91.195312 14.347656 72.664062 0.5625 51.148438 0.5625 C 23.152344 0.5625 0.339844 23.375 0.339844 51.371094 " clip-rule="nonzero"/></clipPath><clipPath id="02a03af281"><rect x="0" width="198" y="0" height="173"/></clipPath><clipPath id="be0bbdd27c"><path d="M 64.160156 116.753906 L 198.183594 116.753906 L 198.183594 250.777344 L 64.160156 250.777344 Z M 64.160156 116.753906 " clip-rule="nonzero"/></clipPath><clipPath id="20b4e74b10"><path d="M 153.300781 116.753906 L 109.042969 116.753906 C 108.246094 116.753906 107.484375 117.066406 106.921875 117.628906 C 106.359375 118.191406 106.042969 118.957031 106.042969 119.753906 L 106.042969 155.636719 C 106.042969 156.429688 105.726562 157.195312 105.164062 157.757812 C 104.601562 158.320312 103.835938 158.636719 103.042969 158.636719 L 67.160156 158.636719 C 66.363281 158.636719 65.601562 158.949219 65.035156 159.515625 C 64.472656 160.078125 64.160156 160.839844 64.160156 161.636719 L 64.160156 205.894531 C 64.160156 206.691406 64.472656 207.453125 65.035156 208.015625 C 65.601562 208.578125 66.363281 208.894531 67.160156 208.894531 L 103.042969 208.894531 C 103.835938 208.894531 104.601562 209.210938 105.164062 209.773438 C 105.726562 210.335938 106.042969 211.097656 106.042969 211.894531 L 106.042969 247.777344 C 106.042969 248.574219 106.359375 249.335938 106.921875 249.898438 C 107.484375 250.460938 108.246094 250.777344 109.042969 250.777344 L 153.300781 250.777344 C 154.097656 250.777344 154.859375 250.460938 155.421875 249.898438 C 155.984375 249.335938 156.300781 248.574219 156.300781 247.777344 L 156.300781 211.894531 C 156.300781 211.097656 156.617188 210.335938 157.179688 209.773438 C 157.742188 209.210938 158.503906 208.894531 159.300781 208.894531 L 195.183594 208.894531 C 195.980469 208.894531 196.742188 208.578125 197.304688 208.015625 C 197.867188 207.453125 198.183594 206.691406 198.183594 205.894531 L 198.183594 161.636719 C 198.183594 160.839844 197.867188 160.078125 197.304688 159.515625 C 196.742188 158.949219 195.980469 158.636719 195.183594 158.636719 L 159.300781 158.636719 C 158.503906 158.636719 157.742188 158.320312 157.179688 157.757812 C 156.617188 157.195312 156.300781 156.429688 156.300781 155.636719 L 156.300781 119.753906 C 156.300781 118.957031 155.984375 118.191406 155.421875 117.628906 C 154.859375 117.066406 154.097656 116.753906 153.300781 116.753906 Z M 153.300781 116.753906 " clip-rule="nonzero"/></clipPath><clipPath id="c0fa1bf781"><path d="M 64.160156 116.753906 L 198.175781 116.753906 L 198.175781 250.769531 L 64.160156 250.769531 Z M 64.160156 116.753906 " clip-rule="nonzero"/></clipPath><clipPath id="22e2b68a02"><path d="M 153.292969 116.753906 L 109.039062 116.753906 C 108.242188 116.753906 107.480469 117.066406 106.917969 117.628906 C 106.355469 118.191406 106.039062 118.957031 106.039062 119.75 L 106.039062 155.632812 C 106.039062 156.425781 105.722656 157.191406 105.160156 157.753906 C 104.597656 158.316406 103.835938 158.632812 103.039062 158.632812 L 67.15625 158.632812 C 66.363281 158.632812 65.597656 158.949219 65.035156 159.511719 C 64.472656 160.074219 64.160156 160.835938 64.160156 161.632812 L 64.160156 205.886719 C 64.160156 206.683594 64.472656 207.445312 65.035156 208.007812 C 65.597656 208.570312 66.363281 208.886719 67.15625 208.886719 L 103.039062 208.886719 C 103.835938 208.886719 104.597656 209.203125 105.160156 209.765625 C 105.722656 210.328125 106.039062 211.09375 106.039062 211.886719 L 106.039062 247.769531 C 106.039062 248.5625 106.355469 249.328125 106.917969 249.890625 C 107.480469 250.453125 108.242188 250.769531 109.039062 250.769531 L 153.292969 250.769531 C 154.089844 250.769531 154.851562 250.453125 155.414062 249.890625 C 155.976562 249.328125 156.292969 248.5625 156.292969 247.769531 L 156.292969 211.886719 C 156.292969 211.09375 156.609375 210.328125 157.171875 209.765625 C 157.734375 209.203125 158.5 208.886719 159.292969 208.886719 L 195.175781 208.886719 C 195.96875 208.886719 196.734375 208.570312 197.296875 208.007812 C 197.859375 207.445312 198.175781 206.683594 198.175781 205.886719 L 198.175781 161.632812 C 198.175781 160.835938 197.859375 160.074219 197.296875 159.511719 C 196.734375 158.949219 195.96875 158.632812 195.175781 158.632812 L 159.292969 158.632812 C 158.5 158.632812 157.734375 158.316406 157.171875 157.753906 C 156.609375 157.191406 156.292969 156.425781 156.292969 155.632812 L 156.292969 119.75 C 156.292969 118.957031 155.976562 118.191406 155.414062 117.628906 C 154.851562 117.066406 154.089844 116.753906 153.292969 116.753906 Z M 153.292969 116.753906 " clip-rule="nonzero"/></clipPath></defs><g clip-path="url(#5c10c1e136)"><g clip-path="url(#4465c04dc1)"><path fill="#64ebb6" d="M 64.160156 34.386719 L 310.617188 34.386719 L 310.617188 250.777344 L 64.160156 250.777344 Z M 64.160156 34.386719 " fill-opacity="1" fill-rule="nonzero"/></g></g><g mask="url(#918a4f8e87)"><g transform="matrix(1, 0, 0, 1, 89, 78)"><g clip-path="url(#02a03af281)"><g clip-path="url(#4549183a3f)"><g clip-path="url(#d347918890)"><path fill="#1b9ce4" d="M 0.339844 0.5625 L 196.480469 0.5625 L 196.480469 172.777344 L 0.339844 172.777344 Z M 0.339844 0.5625 " fill-opacity="1" fill-rule="nonzero"/></g></g></g></g></g><g clip-path="url(#be0bbdd27c)"><g clip-path="url(#20b4e74b10)"><path fill="#ffffff" d="M 64.160156 116.753906 L 198.183594 116.753906 L 198.183594 250.777344 L 64.160156 250.777344 Z M 64.160156 116.753906 " fill-opacity="1" fill-rule="nonzero"/></g></g><g clip-path="url(#c0fa1bf781)"><g clip-path="url(#22e2b68a02)"><path stroke-linecap="butt" transform="matrix(0.75, 0, 0, 0.75, 64.158413, 116.752032)" fill="none" stroke-linejoin="miter" d="M 118.846082 0.00249962 L 59.84087 0.00249962 C 58.77837 0.00249962 57.762745 0.419166 57.012745 1.169166 C 56.262745 1.919166 55.84087 2.94 55.84087 3.997292 L 55.84087 51.841045 C 55.84087 52.898336 55.418995 53.91917 54.668994 54.66917 C 53.918994 55.41917 52.903369 55.841045 51.840869 55.841045 L 3.997116 55.841045 C 2.939824 55.841045 1.918991 56.26292 1.168991 57.01292 C 0.418991 57.76292 0.00232422 58.778545 0.00232422 59.841045 L 0.00232422 118.846257 C 0.00232422 119.908757 0.418991 120.924383 1.168991 121.674383 C 1.918991 122.424383 2.939824 122.846258 3.997116 122.846258 L 51.840869 122.846258 C 52.903369 122.846258 53.918994 123.268133 54.668994 124.018133 C 55.418995 124.768133 55.84087 125.788966 55.84087 126.846258 L 55.84087 174.690011 C 55.84087 175.747303 56.262745 176.768136 57.012745 177.518136 C 57.762745 178.268136 58.77837 178.690011 59.84087 178.690011 L 118.846082 178.690011 C 119.908582 178.690011 120.924207 178.268136 121.674207 177.518136 C 122.424207 176.768136 122.846082 175.747303 122.846082 174.690011 L 122.846082 126.846258 C 122.846082 125.788966 123.267957 124.768133 124.017957 124.018133 C 124.767957 123.268133 125.788791 122.846258 126.846083 122.846258 L 174.689836 122.846258 C 175.747127 122.846258 176.767961 122.424383 177.517961 121.674383 C 178.267961 120.924383 178.689836 119.908757 178.689836 118.846257 L 178.689836 59.841045 C 178.689836 58.778545 178.267961 57.76292 177.517961 57.01292 C 176.767961 56.26292 175.747127 55.841045 174.689836 55.841045 L 126.846083 55.841045 C 125.788791 55.841045 124.767957 55.41917 124.017957 54.66917 C 123.267957 53.91917 122.846082 52.898336 122.846082 51.841045 L 122.846082 3.997292 C 122.846082 2.94 122.424207 1.919166 121.674207 1.169166 C 120.924207 0.419166 119.908582 0.00249962 118.846082 0.00249962 Z M 118.846082 0.00249962 " stroke="#1b9ce4" stroke-width="4" stroke-opacity="1" stroke-miterlimit="4"/></g></g><g fill="#1b9ce4" fill-opacity="1"><g transform="translate(3.550096, 318.870214)"><g><path d="M 4.390625 0 L 4.390625 -49.09375 L 19.484375 -49.09375 C 23.804688 -49.09375 27.671875 -48.117188 31.078125 -46.171875 C 34.484375 -44.234375 37.140625 -41.472656 39.046875 -37.890625 C 40.960938 -34.304688 41.921875 -30.226562 41.921875 -25.65625 L 41.921875 -23.40625 C 41.921875 -18.84375 40.976562 -14.785156 39.09375 -11.234375 C 37.21875 -7.679688 34.570312 -4.925781 31.15625 -2.96875 C 27.738281 -1.007812 23.882812 -0.0195312 19.59375 0 Z M 14.5 -40.90625 L 14.5 -8.125 L 19.390625 -8.125 C 23.347656 -8.125 26.367188 -9.414062 28.453125 -12 C 30.546875 -14.59375 31.617188 -18.289062 31.671875 -23.09375 L 31.671875 -25.703125 C 31.671875 -30.691406 30.632812 -34.472656 28.5625 -37.046875 C 26.488281 -39.617188 23.460938 -40.90625 19.484375 -40.90625 Z M 14.5 -40.90625 "/></g></g></g><g fill="#1b9ce4" fill-opacity="1"><g transform="translate(48.431441, 318.870214)"><g><path d="M 14.03125 0 L 4.25 0 L 4.25 -36.484375 L 14.03125 -36.484375 Z M 3.671875 -45.921875 C 3.671875 -47.390625 4.160156 -48.59375 5.140625 -49.53125 C 6.117188 -50.476562 7.453125 -50.953125 9.140625 -50.953125 C 10.804688 -50.953125 12.132812 -50.476562 13.125 -49.53125 C 14.113281 -48.59375 14.609375 -47.390625 14.609375 -45.921875 C 14.609375 -44.441406 14.101562 -43.226562 13.09375 -42.28125 C 12.09375 -41.34375 10.769531 -40.875 9.125 -40.875 C 7.488281 -40.875 6.171875 -41.34375 5.171875 -42.28125 C 4.171875 -43.226562 3.671875 -44.441406 3.671875 -45.921875 Z M 3.671875 -45.921875 "/></g></g></g><g fill="#1b9ce4" fill-opacity="1"><g transform="translate(66.741415, 318.870214)"><g><path d="M 24.890625 0 C 24.441406 -0.875 24.113281 -1.960938 23.90625 -3.265625 C 21.550781 -0.640625 18.484375 0.671875 14.703125 0.671875 C 11.128906 0.671875 8.164062 -0.359375 5.8125 -2.421875 C 3.46875 -4.492188 2.296875 -7.101562 2.296875 -10.25 C 2.296875 -14.113281 3.726562 -17.078125 6.59375 -19.140625 C 9.457031 -21.210938 13.597656 -22.265625 19.015625 -22.296875 L 23.5 -22.296875 L 23.5 -24.375 C 23.5 -26.0625 23.066406 -27.410156 22.203125 -28.421875 C 21.335938 -29.429688 19.972656 -29.9375 18.109375 -29.9375 C 16.460938 -29.9375 15.171875 -29.539062 14.234375 -28.75 C 13.304688 -27.96875 12.84375 -26.894531 12.84375 -25.53125 L 3.109375 -25.53125 C 3.109375 -27.644531 3.757812 -29.597656 5.0625 -31.390625 C 6.363281 -33.191406 8.203125 -34.601562 10.578125 -35.625 C 12.960938 -36.644531 15.640625 -37.15625 18.609375 -37.15625 C 23.109375 -37.15625 26.675781 -36.023438 29.3125 -33.765625 C 31.957031 -31.515625 33.28125 -28.34375 33.28125 -24.25 L 33.28125 -8.4375 C 33.300781 -4.96875 33.785156 -2.347656 34.734375 -0.578125 L 34.734375 0 Z M 16.828125 -6.78125 C 18.265625 -6.78125 19.585938 -7.097656 20.796875 -7.734375 C 22.015625 -8.378906 22.914062 -9.238281 23.5 -10.3125 L 23.5 -16.59375 L 19.859375 -16.59375 C 14.984375 -16.59375 12.390625 -14.90625 12.078125 -11.53125 L 12.03125 -10.953125 C 12.03125 -9.742188 12.457031 -8.742188 13.3125 -7.953125 C 14.175781 -7.171875 15.347656 -6.78125 16.828125 -6.78125 Z M 16.828125 -6.78125 "/></g></g></g><g fill="#1b9ce4" fill-opacity="1"><g transform="translate(103.76599, 318.870214)"><g><path d="M 36.625 -17.90625 C 36.625 -12.0625 35.375 -7.503906 32.875 -4.234375 C 30.382812 -0.960938 26.898438 0.671875 22.421875 0.671875 C 18.460938 0.671875 15.304688 -0.84375 12.953125 -3.875 L 12.515625 0 L 3.75 0 L 3.75 -51.796875 L 13.484375 -51.796875 L 13.484375 -33.21875 C 15.734375 -35.84375 18.691406 -37.15625 22.359375 -37.15625 C 26.804688 -37.15625 30.296875 -35.519531 32.828125 -32.25 C 35.359375 -28.976562 36.625 -24.378906 36.625 -18.453125 Z M 26.875 -18.609375 C 26.875 -22.296875 26.289062 -24.988281 25.125 -26.6875 C 23.957031 -28.382812 22.210938 -29.234375 19.890625 -29.234375 C 16.796875 -29.234375 14.660156 -27.960938 13.484375 -25.421875 L 13.484375 -11.03125 C 14.679688 -8.46875 16.84375 -7.1875 19.96875 -7.1875 C 23.113281 -7.1875 25.179688 -8.738281 26.171875 -11.84375 C 26.640625 -13.320312 26.875 -15.578125 26.875 -18.609375 Z M 26.875 -18.609375 "/></g></g></g><g fill="#64ebb6" fill-opacity="1"><g transform="translate(142.651649, 318.870214)"><g><path d="M 42.921875 -16.359375 C 42.546875 -11.078125 40.597656 -6.914062 37.078125 -3.875 C 33.554688 -0.84375 28.921875 0.671875 23.171875 0.671875 C 16.867188 0.671875 11.914062 -1.441406 8.3125 -5.671875 C 4.707031 -9.910156 2.90625 -15.734375 2.90625 -23.140625 L 2.90625 -26.140625 C 2.90625 -30.859375 3.734375 -35.015625 5.390625 -38.609375 C 7.054688 -42.203125 9.4375 -44.960938 12.53125 -46.890625 C 15.625 -48.816406 19.210938 -49.78125 23.296875 -49.78125 C 28.960938 -49.78125 33.523438 -48.257812 36.984375 -45.21875 C 40.453125 -42.1875 42.457031 -37.925781 43 -32.4375 L 32.875 -32.4375 C 32.632812 -35.601562 31.753906 -37.898438 30.234375 -39.328125 C 28.710938 -40.765625 26.398438 -41.484375 23.296875 -41.484375 C 19.929688 -41.484375 17.410156 -40.273438 15.734375 -37.859375 C 14.054688 -35.441406 13.195312 -31.691406 13.15625 -26.609375 L 13.15625 -22.890625 C 13.15625 -17.585938 13.957031 -13.710938 15.5625 -11.265625 C 17.164062 -8.816406 19.703125 -7.59375 23.171875 -7.59375 C 26.296875 -7.59375 28.625 -8.304688 30.15625 -9.734375 C 31.695312 -11.160156 32.582031 -13.367188 32.8125 -16.359375 Z M 42.921875 -16.359375 "/></g></g></g><g fill="#64ebb6" fill-opacity="1"><g transform="translate(187.836468, 318.870214)"><g><path d="M 2.21875 -18.578125 C 2.21875 -22.203125 2.914062 -25.429688 4.3125 -28.265625 C 5.707031 -31.097656 7.710938 -33.285156 10.328125 -34.828125 C 12.953125 -36.378906 15.992188 -37.15625 19.453125 -37.15625 C 24.378906 -37.15625 28.398438 -35.648438 31.515625 -32.640625 C 34.628906 -29.628906 36.363281 -25.539062 36.71875 -20.375 L 36.796875 -17.875 C 36.796875 -12.269531 35.234375 -7.773438 32.109375 -4.390625 C 28.984375 -1.015625 24.789062 0.671875 19.53125 0.671875 C 14.269531 0.671875 10.066406 -1.007812 6.921875 -4.375 C 3.785156 -7.75 2.21875 -12.335938 2.21875 -18.140625 Z M 11.96875 -17.875 C 11.96875 -14.40625 12.617188 -11.753906 13.921875 -9.921875 C 15.234375 -8.097656 17.101562 -7.1875 19.53125 -7.1875 C 21.882812 -7.1875 23.722656 -8.085938 25.046875 -9.890625 C 26.378906 -11.703125 27.046875 -14.597656 27.046875 -18.578125 C 27.046875 -21.972656 26.378906 -24.601562 25.046875 -26.46875 C 23.722656 -28.332031 21.859375 -29.265625 19.453125 -29.265625 C 17.078125 -29.265625 15.234375 -28.335938 13.921875 -26.484375 C 12.617188 -24.628906 11.96875 -21.757812 11.96875 -17.875 Z M 11.96875 -17.875 "/></g></g></g><g fill="#64ebb6" fill-opacity="1"><g transform="translate(226.884244, 318.870214)"><g><path d="M 12.71875 -36.484375 L 13.015625 -32.265625 C 15.617188 -35.523438 19.113281 -37.15625 23.5 -37.15625 C 27.363281 -37.15625 30.238281 -36.019531 32.125 -33.75 C 34.019531 -31.476562 34.988281 -28.085938 35.03125 -23.578125 L 35.03125 0 L 25.296875 0 L 25.296875 -23.328125 C 25.296875 -25.398438 24.84375 -26.898438 23.9375 -27.828125 C 23.039062 -28.765625 21.546875 -29.234375 19.453125 -29.234375 C 16.710938 -29.234375 14.65625 -28.066406 13.28125 -25.734375 L 13.28125 0 L 3.546875 0 L 3.546875 -36.484375 Z M 12.71875 -36.484375 "/></g></g></g><g fill="#64ebb6" fill-opacity="1"><g transform="translate(265.561107, 318.870214)"><g><path d="M 15.40625 -45.453125 L 15.40625 -36.484375 L 21.65625 -36.484375 L 21.65625 -29.34375 L 15.40625 -29.34375 L 15.40625 -11.125 C 15.40625 -9.78125 15.664062 -8.8125 16.1875 -8.21875 C 16.707031 -7.632812 17.695312 -7.34375 19.15625 -7.34375 C 20.226562 -7.34375 21.179688 -7.425781 22.015625 -7.59375 L 22.015625 -0.203125 C 20.109375 0.378906 18.144531 0.671875 16.125 0.671875 C 9.289062 0.671875 5.804688 -2.773438 5.671875 -9.671875 L 5.671875 -29.34375 L 0.34375 -29.34375 L 0.34375 -36.484375 L 5.671875 -36.484375 L 5.671875 -45.453125 Z M 15.40625 -45.453125 "/></g></g></g><g fill="#64ebb6" fill-opacity="1"><g transform="translate(288.895356, 318.870214)"><g><path d="M 24.25 -27.34375 C 22.914062 -27.53125 21.742188 -27.625 20.734375 -27.625 C 17.046875 -27.625 14.628906 -26.375 13.484375 -23.875 L 13.484375 0 L 3.75 0 L 3.75 -36.484375 L 12.953125 -36.484375 L 13.21875 -32.140625 C 15.175781 -35.484375 17.882812 -37.15625 21.34375 -37.15625 C 22.425781 -37.15625 23.4375 -37.007812 24.375 -36.71875 Z M 24.25 -27.34375 "/></g></g></g><g fill="#64ebb6" fill-opacity="1"><g transform="translate(314.084213, 318.870214)"><g><path d="M 2.21875 -18.578125 C 2.21875 -22.203125 2.914062 -25.429688 4.3125 -28.265625 C 5.707031 -31.097656 7.710938 -33.285156 10.328125 -34.828125 C 12.953125 -36.378906 15.992188 -37.15625 19.453125 -37.15625 C 24.378906 -37.15625 28.398438 -35.648438 31.515625 -32.640625 C 34.628906 -29.628906 36.363281 -25.539062 36.71875 -20.375 L 36.796875 -17.875 C 36.796875 -12.269531 35.234375 -7.773438 32.109375 -4.390625 C 28.984375 -1.015625 24.789062 0.671875 19.53125 0.671875 C 14.269531 0.671875 10.066406 -1.007812 6.921875 -4.375 C 3.785156 -7.75 2.21875 -12.335938 2.21875 -18.140625 Z M 11.96875 -17.875 C 11.96875 -14.40625 12.617188 -11.753906 13.921875 -9.921875 C 15.234375 -8.097656 17.101562 -7.1875 19.53125 -7.1875 C 21.882812 -7.1875 23.722656 -8.085938 25.046875 -9.890625 C 26.378906 -11.703125 27.046875 -14.597656 27.046875 -18.578125 C 27.046875 -21.972656 26.378906 -24.601562 25.046875 -26.46875 C 23.722656 -28.332031 21.859375 -29.265625 19.453125 -29.265625 C 17.078125 -29.265625 15.234375 -28.335938 13.921875 -26.484375 C 12.617188 -24.628906 11.96875 -21.757812 11.96875 -17.875 Z M 11.96875 -17.875 "/></g></g></g><g fill="#64ebb6" fill-opacity="1"><g transform="translate(353.131989, 318.870214)"><g><path d="M 14.03125 0 L 4.25 0 L 4.25 -51.796875 L 14.03125 -51.796875 Z M 14.03125 0 "/></g></g></g><g fill="#1b9ce4" fill-opacity="1"><g transform="translate(100.148436, 353.662712)"><g><path d="M 11.1875 -4.265625 C 11.09375 -2.890625 10.582031 -1.804688 9.65625 -1.015625 C 8.738281 -0.222656 7.53125 0.171875 6.03125 0.171875 C 4.394531 0.171875 3.101562 -0.378906 2.15625 -1.484375 C 1.21875 -2.585938 0.75 -4.101562 0.75 -6.03125 L 0.75 -6.8125 C 0.75 -8.039062 0.96875 -9.125 1.40625 -10.0625 C 1.84375 -11 2.460938 -11.71875 3.265625 -12.21875 C 4.066406 -12.71875 5.003906 -12.96875 6.078125 -12.96875 C 7.546875 -12.96875 8.734375 -12.570312 9.640625 -11.78125 C 10.546875 -10.988281 11.066406 -9.878906 11.203125 -8.453125 L 8.5625 -8.453125 C 8.5 -9.273438 8.269531 -9.875 7.875 -10.25 C 7.476562 -10.625 6.878906 -10.8125 6.078125 -10.8125 C 5.191406 -10.8125 4.53125 -10.492188 4.09375 -9.859375 C 3.664062 -9.234375 3.441406 -8.257812 3.421875 -6.9375 L 3.421875 -5.96875 C 3.421875 -4.582031 3.628906 -3.570312 4.046875 -2.9375 C 4.472656 -2.300781 5.132812 -1.984375 6.03125 -1.984375 C 6.851562 -1.984375 7.460938 -2.164062 7.859375 -2.53125 C 8.265625 -2.90625 8.492188 -3.484375 8.546875 -4.265625 Z M 11.1875 -4.265625 "/></g></g></g><g fill="#1b9ce4" fill-opacity="1"><g transform="translate(111.918111, 353.662712)"><g><path d="M 6.671875 -0.96875 C 6.046875 -0.207031 5.175781 0.171875 4.0625 0.171875 C 3.050781 0.171875 2.273438 -0.117188 1.734375 -0.703125 C 1.203125 -1.285156 0.929688 -2.144531 0.921875 -3.28125 L 0.921875 -9.515625 L 3.453125 -9.515625 L 3.453125 -3.359375 C 3.453125 -2.367188 3.90625 -1.875 4.8125 -1.875 C 5.664062 -1.875 6.253906 -2.175781 6.578125 -2.78125 L 6.578125 -9.515625 L 9.125 -9.515625 L 9.125 0 L 6.734375 0 Z M 6.671875 -0.96875 "/></g></g></g><g fill="#1b9ce4" fill-opacity="1"><g transform="translate(121.983819, 353.662712)"><g><path d="M 3.65625 0 L 1.109375 0 L 1.109375 -9.515625 L 3.65625 -9.515625 Z M 0.953125 -11.96875 C 0.953125 -12.351562 1.078125 -12.664062 1.328125 -12.90625 C 1.585938 -13.15625 1.9375 -13.28125 2.375 -13.28125 C 2.8125 -13.28125 3.160156 -13.15625 3.421875 -12.90625 C 3.679688 -12.664062 3.8125 -12.351562 3.8125 -11.96875 C 3.8125 -11.582031 3.679688 -11.265625 3.421875 -11.015625 C 3.160156 -10.773438 2.8125 -10.65625 2.375 -10.65625 C 1.945312 -10.65625 1.601562 -10.773438 1.34375 -11.015625 C 1.082031 -11.265625 0.953125 -11.582031 0.953125 -11.96875 Z M 0.953125 -11.96875 "/></g></g></g><g fill="#1b9ce4" fill-opacity="1"><g transform="translate(126.753178, 353.662712)"><g><path d="M 0.578125 -4.828125 C 0.578125 -6.304688 0.910156 -7.484375 1.578125 -8.359375 C 2.242188 -9.242188 3.15625 -9.6875 4.3125 -9.6875 C 5.238281 -9.6875 6 -9.34375 6.59375 -8.65625 L 6.59375 -13.5 L 9.15625 -13.5 L 9.15625 0 L 6.859375 0 L 6.734375 -1.015625 C 6.097656 -0.222656 5.285156 0.171875 4.296875 0.171875 C 3.171875 0.171875 2.269531 -0.265625 1.59375 -1.140625 C 0.914062 -2.023438 0.578125 -3.253906 0.578125 -4.828125 Z M 3.125 -4.640625 C 3.125 -3.753906 3.273438 -3.070312 3.578125 -2.59375 C 3.890625 -2.113281 4.34375 -1.875 4.9375 -1.875 C 5.726562 -1.875 6.28125 -2.207031 6.59375 -2.875 L 6.59375 -6.625 C 6.28125 -7.289062 5.734375 -7.625 4.953125 -7.625 C 3.734375 -7.625 3.125 -6.628906 3.125 -4.640625 Z M 3.125 -4.640625 "/></g></g></g><g fill="#1b9ce4" fill-opacity="1"><g transform="translate(136.889152, 353.662712)"><g><path d="M 6.484375 0 C 6.367188 -0.226562 6.285156 -0.515625 6.234375 -0.859375 C 5.617188 -0.171875 4.816406 0.171875 3.828125 0.171875 C 2.898438 0.171875 2.128906 -0.09375 1.515625 -0.625 C 0.898438 -1.164062 0.59375 -1.847656 0.59375 -2.671875 C 0.59375 -3.679688 0.96875 -4.453125 1.71875 -4.984375 C 2.46875 -5.523438 3.546875 -5.800781 4.953125 -5.8125 L 6.125 -5.8125 L 6.125 -6.359375 C 6.125 -6.796875 6.007812 -7.144531 5.78125 -7.40625 C 5.5625 -7.675781 5.207031 -7.8125 4.71875 -7.8125 C 4.289062 -7.8125 3.953125 -7.707031 3.703125 -7.5 C 3.460938 -7.289062 3.34375 -7.007812 3.34375 -6.65625 L 0.8125 -6.65625 C 0.8125 -7.207031 0.976562 -7.71875 1.3125 -8.1875 C 1.65625 -8.65625 2.132812 -9.019531 2.75 -9.28125 C 3.375 -9.550781 4.078125 -9.6875 4.859375 -9.6875 C 6.023438 -9.6875 6.953125 -9.390625 7.640625 -8.796875 C 8.328125 -8.210938 8.671875 -7.382812 8.671875 -6.3125 L 8.671875 -2.203125 C 8.679688 -1.296875 8.804688 -0.613281 9.046875 -0.15625 L 9.046875 0 Z M 4.390625 -1.765625 C 4.765625 -1.765625 5.109375 -1.847656 5.421875 -2.015625 C 5.734375 -2.179688 5.96875 -2.40625 6.125 -2.6875 L 6.125 -4.328125 L 5.171875 -4.328125 C 3.898438 -4.328125 3.222656 -3.882812 3.140625 -3 L 3.140625 -2.859375 C 3.140625 -2.535156 3.25 -2.269531 3.46875 -2.0625 C 3.695312 -1.863281 4.003906 -1.765625 4.390625 -1.765625 Z M 4.390625 -1.765625 "/></g></g></g><g fill="#1b9ce4" fill-opacity="1"><g transform="translate(146.533259, 353.662712)"><g><path d="M 3.359375 -9.515625 L 3.4375 -8.453125 C 4.113281 -9.273438 5.023438 -9.6875 6.171875 -9.6875 C 7.390625 -9.6875 8.226562 -9.203125 8.6875 -8.234375 C 9.351562 -9.203125 10.304688 -9.6875 11.546875 -9.6875 C 12.578125 -9.6875 13.34375 -9.382812 13.84375 -8.78125 C 14.351562 -8.1875 14.609375 -7.285156 14.609375 -6.078125 L 14.609375 0 L 12.0625 0 L 12.0625 -6.0625 C 12.0625 -6.601562 11.953125 -7 11.734375 -7.25 C 11.523438 -7.5 11.15625 -7.625 10.625 -7.625 C 9.863281 -7.625 9.335938 -7.257812 9.046875 -6.53125 L 9.046875 0 L 6.515625 0 L 6.515625 -6.0625 C 6.515625 -6.601562 6.40625 -7 6.1875 -7.25 C 5.96875 -7.5 5.597656 -7.625 5.078125 -7.625 C 4.359375 -7.625 3.835938 -7.320312 3.515625 -6.71875 L 3.515625 0 L 0.96875 0 L 0.96875 -9.515625 Z M 3.359375 -9.515625 "/></g></g></g><g fill="#1b9ce4" fill-opacity="1"><g transform="translate(162.106126, 353.662712)"><g><path d="M 0.578125 -4.84375 C 0.578125 -5.789062 0.757812 -6.628906 1.125 -7.359375 C 1.488281 -8.097656 2.007812 -8.671875 2.6875 -9.078125 C 3.375 -9.484375 4.171875 -9.6875 5.078125 -9.6875 C 6.359375 -9.6875 7.40625 -9.289062 8.21875 -8.5 C 9.03125 -7.71875 9.484375 -6.65625 9.578125 -5.3125 L 9.59375 -4.65625 C 9.59375 -3.195312 9.179688 -2.023438 8.359375 -1.140625 C 7.546875 -0.265625 6.453125 0.171875 5.078125 0.171875 C 3.710938 0.171875 2.617188 -0.265625 1.796875 -1.140625 C 0.984375 -2.023438 0.578125 -3.222656 0.578125 -4.734375 Z M 3.125 -4.65625 C 3.125 -3.757812 3.289062 -3.070312 3.625 -2.59375 C 3.96875 -2.113281 4.457031 -1.875 5.09375 -1.875 C 5.707031 -1.875 6.1875 -2.109375 6.53125 -2.578125 C 6.875 -3.046875 7.046875 -3.800781 7.046875 -4.84375 C 7.046875 -5.726562 6.875 -6.410156 6.53125 -6.890625 C 6.1875 -7.378906 5.703125 -7.625 5.078125 -7.625 C 4.453125 -7.625 3.96875 -7.378906 3.625 -6.890625 C 3.289062 -6.410156 3.125 -5.664062 3.125 -4.65625 Z M 3.125 -4.65625 "/></g></g></g><g fill="#1b9ce4" fill-opacity="1"><g transform="translate(172.277234, 353.662712)"><g><path d="M 6.125 -2.625 C 6.125 -2.9375 5.96875 -3.179688 5.65625 -3.359375 C 5.351562 -3.535156 4.863281 -3.695312 4.1875 -3.84375 C 1.925781 -4.3125 0.796875 -5.269531 0.796875 -6.71875 C 0.796875 -7.5625 1.144531 -8.265625 1.84375 -8.828125 C 2.539062 -9.398438 3.457031 -9.6875 4.59375 -9.6875 C 5.800781 -9.6875 6.765625 -9.398438 7.484375 -8.828125 C 8.203125 -8.265625 8.5625 -7.53125 8.5625 -6.625 L 6.03125 -6.625 C 6.03125 -6.976562 5.910156 -7.273438 5.671875 -7.515625 C 5.441406 -7.753906 5.078125 -7.875 4.578125 -7.875 C 4.148438 -7.875 3.816406 -7.773438 3.578125 -7.578125 C 3.347656 -7.390625 3.234375 -7.144531 3.234375 -6.84375 C 3.234375 -6.5625 3.363281 -6.332031 3.625 -6.15625 C 3.894531 -5.988281 4.347656 -5.84375 4.984375 -5.71875 C 5.617188 -5.59375 6.148438 -5.453125 6.578125 -5.296875 C 7.921875 -4.796875 8.59375 -3.941406 8.59375 -2.734375 C 8.59375 -1.867188 8.21875 -1.164062 7.46875 -0.625 C 6.726562 -0.09375 5.769531 0.171875 4.59375 0.171875 C 3.800781 0.171875 3.09375 0.03125 2.46875 -0.25 C 1.851562 -0.53125 1.367188 -0.914062 1.015625 -1.40625 C 0.671875 -1.90625 0.5 -2.445312 0.5 -3.03125 L 2.90625 -3.03125 C 2.925781 -2.570312 3.09375 -2.222656 3.40625 -1.984375 C 3.71875 -1.742188 4.132812 -1.625 4.65625 -1.625 C 5.132812 -1.625 5.5 -1.71875 5.75 -1.90625 C 6 -2.09375 6.125 -2.332031 6.125 -2.625 Z M 6.125 -2.625 "/></g></g></g><g fill="#1b9ce4" fill-opacity="1"><g transform="translate(181.526097, 353.662712)"><g/></g></g><g fill="#1b9ce4" fill-opacity="1"><g transform="translate(186.0056, 353.662712)"><g><path d="M 0.578125 -4.828125 C 0.578125 -6.304688 0.910156 -7.484375 1.578125 -8.359375 C 2.242188 -9.242188 3.15625 -9.6875 4.3125 -9.6875 C 5.238281 -9.6875 6 -9.34375 6.59375 -8.65625 L 6.59375 -13.5 L 9.15625 -13.5 L 9.15625 0 L 6.859375 0 L 6.734375 -1.015625 C 6.097656 -0.222656 5.285156 0.171875 4.296875 0.171875 C 3.171875 0.171875 2.269531 -0.265625 1.59375 -1.140625 C 0.914062 -2.023438 0.578125 -3.253906 0.578125 -4.828125 Z M 3.125 -4.640625 C 3.125 -3.753906 3.273438 -3.070312 3.578125 -2.59375 C 3.890625 -2.113281 4.34375 -1.875 4.9375 -1.875 C 5.726562 -1.875 6.28125 -2.207031 6.59375 -2.875 L 6.59375 -6.625 C 6.28125 -7.289062 5.734375 -7.625 4.953125 -7.625 C 3.734375 -7.625 3.125 -6.628906 3.125 -4.640625 Z M 3.125 -4.640625 "/></g></g></g><g fill="#1b9ce4" fill-opacity="1"><g transform="translate(196.141574, 353.662712)"><g><path d="M 5.359375 0.171875 C 3.960938 0.171875 2.828125 -0.253906 1.953125 -1.109375 C 1.078125 -1.960938 0.640625 -3.101562 0.640625 -4.53125 L 0.640625 -4.765625 C 0.640625 -5.722656 0.820312 -6.578125 1.1875 -7.328125 C 1.550781 -8.085938 2.070312 -8.671875 2.75 -9.078125 C 3.425781 -9.484375 4.203125 -9.6875 5.078125 -9.6875 C 6.367188 -9.6875 7.390625 -9.273438 8.140625 -8.453125 C 8.890625 -7.628906 9.265625 -6.46875 9.265625 -4.96875 L 9.265625 -3.921875 L 3.203125 -3.921875 C 3.285156 -3.304688 3.535156 -2.8125 3.953125 -2.4375 C 4.367188 -2.0625 4.890625 -1.875 5.515625 -1.875 C 6.492188 -1.875 7.257812 -2.226562 7.8125 -2.9375 L 9.0625 -1.53125 C 8.675781 -1 8.160156 -0.582031 7.515625 -0.28125 C 6.867188 0.0195312 6.148438 0.171875 5.359375 0.171875 Z M 5.0625 -7.625 C 4.5625 -7.625 4.148438 -7.453125 3.828125 -7.109375 C 3.515625 -6.773438 3.316406 -6.289062 3.234375 -5.65625 L 6.765625 -5.65625 L 6.765625 -5.859375 C 6.753906 -6.421875 6.601562 -6.851562 6.3125 -7.15625 C 6.019531 -7.46875 5.601562 -7.625 5.0625 -7.625 Z M 5.0625 -7.625 "/></g></g></g><g fill="#1b9ce4" fill-opacity="1"><g transform="translate(205.864737, 353.662712)"><g/></g></g><g fill="#1b9ce4" fill-opacity="1"><g transform="translate(210.34424, 353.662712)"><g><path d="M 4.015625 -11.84375 L 4.015625 -9.515625 L 5.640625 -9.515625 L 5.640625 -7.640625 L 4.015625 -7.640625 L 4.015625 -2.90625 C 4.015625 -2.550781 4.082031 -2.296875 4.21875 -2.140625 C 4.351562 -1.992188 4.613281 -1.921875 5 -1.921875 C 5.28125 -1.921875 5.523438 -1.941406 5.734375 -1.984375 L 5.734375 -0.046875 C 5.242188 0.0976562 4.734375 0.171875 4.203125 0.171875 C 2.421875 0.171875 1.515625 -0.722656 1.484375 -2.515625 L 1.484375 -7.640625 L 0.09375 -7.640625 L 0.09375 -9.515625 L 1.484375 -9.515625 L 1.484375 -11.84375 Z M 4.015625 -11.84375 "/></g></g></g><g fill="#1b9ce4" fill-opacity="1"><g transform="translate(216.422312, 353.662712)"><g><path d="M 6.671875 -0.96875 C 6.046875 -0.207031 5.175781 0.171875 4.0625 0.171875 C 3.050781 0.171875 2.273438 -0.117188 1.734375 -0.703125 C 1.203125 -1.285156 0.929688 -2.144531 0.921875 -3.28125 L 0.921875 -9.515625 L 3.453125 -9.515625 L 3.453125 -3.359375 C 3.453125 -2.367188 3.90625 -1.875 4.8125 -1.875 C 5.664062 -1.875 6.253906 -2.175781 6.578125 -2.78125 L 6.578125 -9.515625 L 9.125 -9.515625 L 9.125 0 L 6.734375 0 Z M 6.671875 -0.96875 "/></g></g></g><g fill="#1b9ce4" fill-opacity="1"><g transform="translate(226.488019, 353.662712)"><g/></g></g><g fill="#1b9ce4" fill-opacity="1"><g transform="translate(230.967523, 353.662712)"><g><path d="M 6.125 -2.625 C 6.125 -2.9375 5.96875 -3.179688 5.65625 -3.359375 C 5.351562 -3.535156 4.863281 -3.695312 4.1875 -3.84375 C 1.925781 -4.3125 0.796875 -5.269531 0.796875 -6.71875 C 0.796875 -7.5625 1.144531 -8.265625 1.84375 -8.828125 C 2.539062 -9.398438 3.457031 -9.6875 4.59375 -9.6875 C 5.800781 -9.6875 6.765625 -9.398438 7.484375 -8.828125 C 8.203125 -8.265625 8.5625 -7.53125 8.5625 -6.625 L 6.03125 -6.625 C 6.03125 -6.976562 5.910156 -7.273438 5.671875 -7.515625 C 5.441406 -7.753906 5.078125 -7.875 4.578125 -7.875 C 4.148438 -7.875 3.816406 -7.773438 3.578125 -7.578125 C 3.347656 -7.390625 3.234375 -7.144531 3.234375 -6.84375 C 3.234375 -6.5625 3.363281 -6.332031 3.625 -6.15625 C 3.894531 -5.988281 4.347656 -5.84375 4.984375 -5.71875 C 5.617188 -5.59375 6.148438 -5.453125 6.578125 -5.296875 C 7.921875 -4.796875 8.59375 -3.941406 8.59375 -2.734375 C 8.59375 -1.867188 8.21875 -1.164062 7.46875 -0.625 C 6.726562 -0.09375 5.769531 0.171875 4.59375 0.171875 C 3.800781 0.171875 3.09375 0.03125 2.46875 -0.25 C 1.851562 -0.53125 1.367188 -0.914062 1.015625 -1.40625 C 0.671875 -1.90625 0.5 -2.445312 0.5 -3.03125 L 2.90625 -3.03125 C 2.925781 -2.570312 3.09375 -2.222656 3.40625 -1.984375 C 3.71875 -1.742188 4.132812 -1.625 4.65625 -1.625 C 5.132812 -1.625 5.5 -1.71875 5.75 -1.90625 C 6 -2.09375 6.125 -2.332031 6.125 -2.625 Z M 6.125 -2.625 "/></g></g></g><g fill="#1b9ce4" fill-opacity="1"><g transform="translate(240.216385, 353.662712)"><g><path d="M 6.484375 0 C 6.367188 -0.226562 6.285156 -0.515625 6.234375 -0.859375 C 5.617188 -0.171875 4.816406 0.171875 3.828125 0.171875 C 2.898438 0.171875 2.128906 -0.09375 1.515625 -0.625 C 0.898438 -1.164062 0.59375 -1.847656 0.59375 -2.671875 C 0.59375 -3.679688 0.96875 -4.453125 1.71875 -4.984375 C 2.46875 -5.523438 3.546875 -5.800781 4.953125 -5.8125 L 6.125 -5.8125 L 6.125 -6.359375 C 6.125 -6.796875 6.007812 -7.144531 5.78125 -7.40625 C 5.5625 -7.675781 5.207031 -7.8125 4.71875 -7.8125 C 4.289062 -7.8125 3.953125 -7.707031 3.703125 -7.5 C 3.460938 -7.289062 3.34375 -7.007812 3.34375 -6.65625 L 0.8125 -6.65625 C 0.8125 -7.207031 0.976562 -7.71875 1.3125 -8.1875 C 1.65625 -8.65625 2.132812 -9.019531 2.75 -9.28125 C 3.375 -9.550781 4.078125 -9.6875 4.859375 -9.6875 C 6.023438 -9.6875 6.953125 -9.390625 7.640625 -8.796875 C 8.328125 -8.210938 8.671875 -7.382812 8.671875 -6.3125 L 8.671875 -2.203125 C 8.679688 -1.296875 8.804688 -0.613281 9.046875 -0.15625 L 9.046875 0 Z M 4.390625 -1.765625 C 4.765625 -1.765625 5.109375 -1.847656 5.421875 -2.015625 C 5.734375 -2.179688 5.96875 -2.40625 6.125 -2.6875 L 6.125 -4.328125 L 5.171875 -4.328125 C 3.898438 -4.328125 3.222656 -3.882812 3.140625 -3 L 3.140625 -2.859375 C 3.140625 -2.535156 3.25 -2.269531 3.46875 -2.0625 C 3.695312 -1.863281 4.003906 -1.765625 4.390625 -1.765625 Z M 4.390625 -1.765625 "/></g></g></g><g fill="#1b9ce4" fill-opacity="1"><g transform="translate(249.860492, 353.662712)"><g><path d="M 3.65625 0 L 1.109375 0 L 1.109375 -13.5 L 3.65625 -13.5 Z M 3.65625 0 "/></g></g></g><g fill="#1b9ce4" fill-opacity="1"><g transform="translate(254.629852, 353.662712)"><g><path d="M 6.671875 -0.96875 C 6.046875 -0.207031 5.175781 0.171875 4.0625 0.171875 C 3.050781 0.171875 2.273438 -0.117188 1.734375 -0.703125 C 1.203125 -1.285156 0.929688 -2.144531 0.921875 -3.28125 L 0.921875 -9.515625 L 3.453125 -9.515625 L 3.453125 -3.359375 C 3.453125 -2.367188 3.90625 -1.875 4.8125 -1.875 C 5.664062 -1.875 6.253906 -2.175781 6.578125 -2.78125 L 6.578125 -9.515625 L 9.125 -9.515625 L 9.125 0 L 6.734375 0 Z M 6.671875 -0.96875 "/></g></g></g><g fill="#1b9ce4" fill-opacity="1"><g transform="translate(264.695559, 353.662712)"><g><path d="M 0.578125 -4.828125 C 0.578125 -6.304688 0.910156 -7.484375 1.578125 -8.359375 C 2.242188 -9.242188 3.15625 -9.6875 4.3125 -9.6875 C 5.238281 -9.6875 6 -9.34375 6.59375 -8.65625 L 6.59375 -13.5 L 9.15625 -13.5 L 9.15625 0 L 6.859375 0 L 6.734375 -1.015625 C 6.097656 -0.222656 5.285156 0.171875 4.296875 0.171875 C 3.171875 0.171875 2.269531 -0.265625 1.59375 -1.140625 C 0.914062 -2.023438 0.578125 -3.253906 0.578125 -4.828125 Z M 3.125 -4.640625 C 3.125 -3.753906 3.273438 -3.070312 3.578125 -2.59375 C 3.890625 -2.113281 4.34375 -1.875 4.9375 -1.875 C 5.726562 -1.875 6.28125 -2.207031 6.59375 -2.875 L 6.59375 -6.625 C 6.28125 -7.289062 5.734375 -7.625 4.953125 -7.625 C 3.734375 -7.625 3.125 -6.628906 3.125 -4.640625 Z M 3.125 -4.640625 "/></g></g></g></svg>