<svg xmlns="http://www.w3.org/2000/svg" xmlns:xlink="http://www.w3.org/1999/xlink" width="200" zoomAndPan="magnify" viewBox="0 0 150 37.5" height="50" preserveAspectRatio="xMidYMid meet" version="1.0"><defs><filter x="0%" y="0%" width="100%" height="100%" id="312199cacd"><feColorMatrix values="0 0 0 0 1 0 0 0 0 1 0 0 0 0 1 0 0 0 1 0" color-interpolation-filters="sRGB"/></filter><g/><clipPath id="7d852231ff"><path d="M 0.988281 0 L 149.011719 0 L 149.011719 37.007812 L 0.988281 37.007812 Z M 0.988281 0 " clip-rule="nonzero"/></clipPath><clipPath id="3d738c8659"><path d="M 4.6875 1.851562 L 42.695312 1.851562 L 42.695312 35.15625 L 4.6875 35.15625 Z M 4.6875 1.851562 " clip-rule="nonzero"/></clipPath><clipPath id="98c0676cfc"><path d="M 4.6875 11.675781 C 4.6875 22.253906 23.671875 35.15625 23.671875 35.15625 C 23.671875 35.15625 42.574219 22.164062 42.65625 11.675781 C 42.65625 6.261719 38.242188 1.851562 32.828125 1.851562 C 28.667969 1.851562 25.085938 4.515625 23.671875 8.175781 C 22.257812 4.515625 18.675781 1.851562 14.515625 1.851562 C 9.097656 1.851562 4.6875 6.261719 4.6875 11.675781 " clip-rule="nonzero"/></clipPath><mask id="a5430aa260"><g filter="url(#312199cacd)"><rect x="-15" width="180" fill="#000000" y="-3.75" height="45" fill-opacity="0.82"/></g></mask><clipPath id="80fa3da98e"><path d="M 0.5625 0.648438 L 30.8125 0.648438 L 30.8125 27.15625 L 0.5625 27.15625 Z M 0.5625 0.648438 " clip-rule="nonzero"/></clipPath><clipPath id="0b3de25e16"><path d="M 0.5625 8.46875 C 0.5625 16.886719 15.671875 27.15625 15.671875 27.15625 C 15.671875 27.15625 30.714844 16.816406 30.78125 8.46875 C 30.78125 4.160156 27.269531 0.648438 22.960938 0.648438 C 19.648438 0.648438 16.796875 2.769531 15.671875 5.683594 C 14.546875 2.769531 11.695312 0.648438 8.382812 0.648438 C 4.074219 0.648438 0.5625 4.160156 0.5625 8.46875 " clip-rule="nonzero"/></clipPath><clipPath id="36b56a1ee2"><rect x="0" width="31" y="0" height="28"/></clipPath><clipPath id="21736a7c80"><path d="M 4.6875 14.527344 L 25.316406 14.527344 L 25.316406 35.15625 L 4.6875 35.15625 Z M 4.6875 14.527344 " clip-rule="nonzero"/></clipPath><clipPath id="cd7bc8b793"><path d="M 18.382812 14.527344 L 11.621094 14.527344 C 11.351562 14.527344 11.132812 14.746094 11.132812 15.015625 L 11.132812 20.488281 C 11.132812 20.757812 10.917969 20.972656 10.648438 20.972656 L 5.175781 20.972656 C 4.90625 20.972656 4.6875 21.191406 4.6875 21.460938 L 4.6875 28.222656 C 4.6875 28.492188 4.90625 28.710938 5.175781 28.710938 L 10.648438 28.710938 C 10.917969 28.710938 11.132812 28.925781 11.132812 29.195312 L 11.132812 34.667969 C 11.132812 34.9375 11.351562 35.15625 11.621094 35.15625 L 18.382812 35.15625 C 18.652344 35.15625 18.871094 34.9375 18.871094 34.667969 L 18.871094 29.195312 C 18.871094 28.925781 19.085938 28.710938 19.355469 28.710938 L 24.828125 28.710938 C 25.097656 28.710938 25.316406 28.492188 25.316406 28.222656 L 25.316406 21.460938 C 25.316406 21.191406 25.097656 20.972656 24.828125 20.972656 L 19.355469 20.972656 C 19.085938 20.972656 18.871094 20.757812 18.871094 20.488281 L 18.871094 15.015625 C 18.871094 14.746094 18.652344 14.527344 18.382812 14.527344 Z M 18.382812 14.527344 " clip-rule="nonzero"/></clipPath></defs><g clip-path="url(#7d852231ff)"><path fill="#ffffff" d="M 0.988281 0 L 149.011719 0 L 149.011719 37.007812 L 0.988281 37.007812 Z M 0.988281 0 " fill-opacity="1" fill-rule="nonzero"/><path fill="#ffffff" d="M 0.988281 0 L 149.011719 0 L 149.011719 37.007812 L 0.988281 37.007812 Z M 0.988281 0 " fill-opacity="1" fill-rule="nonzero"/></g><g clip-path="url(#3d738c8659)"><g clip-path="url(#98c0676cfc)"><path fill="#64ebb6" d="M 4.6875 1.851562 L 42.621094 1.851562 L 42.621094 35.15625 L 4.6875 35.15625 Z M 4.6875 1.851562 " fill-opacity="1" fill-rule="nonzero"/></g></g><g mask="url(#a5430aa260)"><g transform="matrix(1, 0, 0, 1, 8, 8)"><g clip-path="url(#36b56a1ee2)"><g clip-path="url(#80fa3da98e)"><g clip-path="url(#0b3de25e16)"><path fill="#1b9ce4" d="M 0.5625 0.648438 L 30.753906 0.648438 L 30.753906 27.15625 L 0.5625 27.15625 Z M 0.5625 0.648438 " fill-opacity="1" fill-rule="nonzero"/></g></g></g></g></g><g clip-path="url(#21736a7c80)"><g clip-path="url(#cd7bc8b793)"><path fill="#ffffff" d="M 4.6875 14.527344 L 25.316406 14.527344 L 25.316406 35.15625 L 4.6875 35.15625 Z M 4.6875 14.527344 " fill-opacity="1" fill-rule="nonzero"/></g></g><g fill="#1b9ce4" fill-opacity="1"><g transform="translate(48.759015, 24.526783)"><g><path d="M 1.140625 0 L 1.140625 -12.75 L 5.0625 -12.75 C 6.1875 -12.75 7.1875 -12.492188 8.0625 -11.984375 C 8.945312 -11.484375 9.640625 -10.765625 10.140625 -9.828125 C 10.640625 -8.898438 10.890625 -7.847656 10.890625 -6.671875 L 10.890625 -6.078125 C 10.890625 -4.890625 10.644531 -3.832031 10.15625 -2.90625 C 9.664062 -1.988281 8.976562 -1.273438 8.09375 -0.765625 C 7.207031 -0.265625 6.207031 -0.0078125 5.09375 0 Z M 3.765625 -10.625 L 3.765625 -2.109375 L 5.03125 -2.109375 C 6.0625 -2.109375 6.847656 -2.441406 7.390625 -3.109375 C 7.929688 -3.785156 8.207031 -4.75 8.21875 -6 L 8.21875 -6.671875 C 8.21875 -7.972656 7.945312 -8.957031 7.40625 -9.625 C 6.875 -10.289062 6.09375 -10.625 5.0625 -10.625 Z M 3.765625 -10.625 "/></g></g></g><g fill="#1b9ce4" fill-opacity="1"><g transform="translate(60.419243, 24.526783)"><g><path d="M 3.640625 0 L 1.109375 0 L 1.109375 -9.484375 L 3.640625 -9.484375 Z M 0.953125 -11.921875 C 0.953125 -12.304688 1.078125 -12.617188 1.328125 -12.859375 C 1.585938 -13.109375 1.9375 -13.234375 2.375 -13.234375 C 2.800781 -13.234375 3.144531 -13.109375 3.40625 -12.859375 C 3.664062 -12.617188 3.796875 -12.304688 3.796875 -11.921875 C 3.796875 -11.535156 3.664062 -11.21875 3.40625 -10.96875 C 3.144531 -10.726562 2.800781 -10.609375 2.375 -10.609375 C 1.945312 -10.609375 1.601562 -10.726562 1.34375 -10.96875 C 1.082031 -11.21875 0.953125 -11.535156 0.953125 -11.921875 Z M 0.953125 -11.921875 "/></g></g></g><g fill="#1b9ce4" fill-opacity="1"><g transform="translate(65.176196, 24.526783)"><g><path d="M 6.46875 0 C 6.34375 -0.226562 6.253906 -0.507812 6.203125 -0.84375 C 5.597656 -0.164062 4.800781 0.171875 3.8125 0.171875 C 2.882812 0.171875 2.113281 -0.09375 1.5 -0.625 C 0.894531 -1.164062 0.59375 -1.84375 0.59375 -2.65625 C 0.59375 -3.664062 0.960938 -4.4375 1.703125 -4.96875 C 2.453125 -5.507812 3.53125 -5.785156 4.9375 -5.796875 L 6.109375 -5.796875 L 6.109375 -6.328125 C 6.109375 -6.765625 5.992188 -7.113281 5.765625 -7.375 C 5.546875 -7.644531 5.191406 -7.78125 4.703125 -7.78125 C 4.273438 -7.78125 3.941406 -7.675781 3.703125 -7.46875 C 3.460938 -7.269531 3.34375 -6.988281 3.34375 -6.625 L 0.8125 -6.625 C 0.8125 -7.175781 0.976562 -7.6875 1.3125 -8.15625 C 1.65625 -8.625 2.132812 -8.988281 2.75 -9.25 C 3.363281 -9.519531 4.054688 -9.65625 4.828125 -9.65625 C 6.003906 -9.65625 6.929688 -9.359375 7.609375 -8.765625 C 8.296875 -8.179688 8.640625 -7.359375 8.640625 -6.296875 L 8.640625 -2.1875 C 8.648438 -1.289062 8.773438 -0.613281 9.015625 -0.15625 L 9.015625 0 Z M 4.375 -1.765625 C 4.75 -1.765625 5.09375 -1.847656 5.40625 -2.015625 C 5.71875 -2.179688 5.953125 -2.40625 6.109375 -2.6875 L 6.109375 -4.3125 L 5.15625 -4.3125 C 3.894531 -4.3125 3.222656 -3.875 3.140625 -3 L 3.125 -2.84375 C 3.125 -2.53125 3.234375 -2.269531 3.453125 -2.0625 C 3.679688 -1.863281 3.988281 -1.765625 4.375 -1.765625 Z M 4.375 -1.765625 "/></g></g></g><g fill="#1b9ce4" fill-opacity="1"><g transform="translate(74.795226, 24.526783)"><g><path d="M 9.515625 -4.65625 C 9.515625 -3.132812 9.1875 -1.945312 8.53125 -1.09375 C 7.882812 -0.25 6.984375 0.171875 5.828125 0.171875 C 4.796875 0.171875 3.972656 -0.21875 3.359375 -1 L 3.25 0 L 0.96875 0 L 0.96875 -13.453125 L 3.5 -13.453125 L 3.5 -8.625 C 4.082031 -9.3125 4.851562 -9.65625 5.8125 -9.65625 C 6.96875 -9.65625 7.875 -9.226562 8.53125 -8.375 C 9.1875 -7.53125 9.515625 -6.335938 9.515625 -4.796875 Z M 6.984375 -4.828125 C 6.984375 -5.785156 6.828125 -6.484375 6.515625 -6.921875 C 6.210938 -7.367188 5.765625 -7.59375 5.171875 -7.59375 C 4.359375 -7.59375 3.800781 -7.265625 3.5 -6.609375 L 3.5 -2.859375 C 3.8125 -2.191406 4.375 -1.859375 5.1875 -1.859375 C 6 -1.859375 6.535156 -2.265625 6.796875 -3.078125 C 6.921875 -3.460938 6.984375 -4.046875 6.984375 -4.828125 Z M 6.984375 -4.828125 "/></g></g></g><g fill="#64ebb6" fill-opacity="1"><g transform="translate(84.896489, 24.526783)"><g><path d="M 11.15625 -4.25 C 11.050781 -2.875 10.539062 -1.789062 9.625 -1 C 8.71875 -0.21875 7.515625 0.171875 6.015625 0.171875 C 4.378906 0.171875 3.09375 -0.375 2.15625 -1.46875 C 1.21875 -2.570312 0.75 -4.085938 0.75 -6.015625 L 0.75 -6.78125 C 0.75 -8.007812 0.960938 -9.09375 1.390625 -10.03125 C 1.828125 -10.96875 2.445312 -11.679688 3.25 -12.171875 C 4.050781 -12.671875 4.984375 -12.921875 6.046875 -12.921875 C 7.523438 -12.921875 8.710938 -12.523438 9.609375 -11.734375 C 10.503906 -10.953125 11.023438 -9.847656 11.171875 -8.421875 L 8.546875 -8.421875 C 8.472656 -9.242188 8.238281 -9.835938 7.84375 -10.203125 C 7.457031 -10.578125 6.859375 -10.765625 6.046875 -10.765625 C 5.171875 -10.765625 4.515625 -10.453125 4.078125 -9.828125 C 3.648438 -9.203125 3.429688 -8.226562 3.421875 -6.90625 L 3.421875 -5.953125 C 3.421875 -4.566406 3.628906 -3.554688 4.046875 -2.921875 C 4.460938 -2.285156 5.117188 -1.96875 6.015625 -1.96875 C 6.828125 -1.96875 7.429688 -2.148438 7.828125 -2.515625 C 8.234375 -2.890625 8.460938 -3.46875 8.515625 -4.25 Z M 11.15625 -4.25 "/></g></g></g><g fill="#64ebb6" fill-opacity="1"><g transform="translate(96.635559, 24.526783)"><g><path d="M 0.578125 -4.828125 C 0.578125 -5.765625 0.757812 -6.597656 1.125 -7.328125 C 1.488281 -8.066406 2.007812 -8.640625 2.6875 -9.046875 C 3.363281 -9.453125 4.148438 -9.65625 5.046875 -9.65625 C 6.328125 -9.65625 7.367188 -9.257812 8.171875 -8.46875 C 8.984375 -7.6875 9.4375 -6.628906 9.53125 -5.296875 L 9.5625 -4.640625 C 9.5625 -3.191406 9.15625 -2.023438 8.34375 -1.140625 C 7.53125 -0.265625 6.4375 0.171875 5.0625 0.171875 C 3.695312 0.171875 2.609375 -0.265625 1.796875 -1.140625 C 0.984375 -2.015625 0.578125 -3.207031 0.578125 -4.71875 Z M 3.109375 -4.640625 C 3.109375 -3.742188 3.273438 -3.054688 3.609375 -2.578125 C 3.953125 -2.097656 4.441406 -1.859375 5.078125 -1.859375 C 5.679688 -1.859375 6.15625 -2.09375 6.5 -2.5625 C 6.851562 -3.039062 7.03125 -3.796875 7.03125 -4.828125 C 7.03125 -5.710938 6.851562 -6.394531 6.5 -6.875 C 6.15625 -7.363281 5.671875 -7.609375 5.046875 -7.609375 C 4.429688 -7.609375 3.953125 -7.363281 3.609375 -6.875 C 3.273438 -6.394531 3.109375 -5.648438 3.109375 -4.640625 Z M 3.109375 -4.640625 "/></g></g></g><g fill="#64ebb6" fill-opacity="1"><g transform="translate(106.780219, 24.526783)"><g><path d="M 3.296875 -9.484375 L 3.375 -8.375 C 4.050781 -9.226562 4.960938 -9.65625 6.109375 -9.65625 C 7.109375 -9.65625 7.851562 -9.359375 8.34375 -8.765625 C 8.832031 -8.171875 9.082031 -7.289062 9.09375 -6.125 L 9.09375 0 L 6.5625 0 L 6.5625 -6.0625 C 6.5625 -6.59375 6.445312 -6.976562 6.21875 -7.21875 C 5.988281 -7.46875 5.597656 -7.59375 5.046875 -7.59375 C 4.335938 -7.59375 3.804688 -7.289062 3.453125 -6.6875 L 3.453125 0 L 0.921875 0 L 0.921875 -9.484375 Z M 3.296875 -9.484375 "/></g></g></g><g fill="#64ebb6" fill-opacity="1"><g transform="translate(116.828514, 24.526783)"><g><path d="M 4 -11.8125 L 4 -9.484375 L 5.625 -9.484375 L 5.625 -7.625 L 4 -7.625 L 4 -2.890625 C 4 -2.535156 4.066406 -2.28125 4.203125 -2.125 C 4.335938 -1.976562 4.59375 -1.90625 4.96875 -1.90625 C 5.25 -1.90625 5.5 -1.925781 5.71875 -1.96875 L 5.71875 -0.046875 C 5.21875 0.0976562 4.707031 0.171875 4.1875 0.171875 C 2.414062 0.171875 1.507812 -0.722656 1.46875 -2.515625 L 1.46875 -7.625 L 0.09375 -7.625 L 0.09375 -9.484375 L 1.46875 -9.484375 L 1.46875 -11.8125 Z M 4 -11.8125 "/></g></g></g><g fill="#64ebb6" fill-opacity="1"><g transform="translate(122.890781, 24.526783)"><g><path d="M 6.296875 -7.109375 C 5.953125 -7.148438 5.648438 -7.171875 5.390625 -7.171875 C 4.429688 -7.171875 3.800781 -6.847656 3.5 -6.203125 L 3.5 0 L 0.96875 0 L 0.96875 -9.484375 L 3.359375 -9.484375 L 3.4375 -8.34375 C 3.945312 -9.21875 4.648438 -9.65625 5.546875 -9.65625 C 5.828125 -9.65625 6.085938 -9.613281 6.328125 -9.53125 Z M 6.296875 -7.109375 "/></g></g></g><g fill="#64ebb6" fill-opacity="1"><g transform="translate(129.434876, 24.526783)"><g><path d="M 0.578125 -4.828125 C 0.578125 -5.765625 0.757812 -6.597656 1.125 -7.328125 C 1.488281 -8.066406 2.007812 -8.640625 2.6875 -9.046875 C 3.363281 -9.453125 4.148438 -9.65625 5.046875 -9.65625 C 6.328125 -9.65625 7.367188 -9.257812 8.171875 -8.46875 C 8.984375 -7.6875 9.4375 -6.628906 9.53125 -5.296875 L 9.5625 -4.640625 C 9.5625 -3.191406 9.15625 -2.023438 8.34375 -1.140625 C 7.53125 -0.265625 6.4375 0.171875 5.0625 0.171875 C 3.695312 0.171875 2.609375 -0.265625 1.796875 -1.140625 C 0.984375 -2.015625 0.578125 -3.207031 0.578125 -4.71875 Z M 3.109375 -4.640625 C 3.109375 -3.742188 3.273438 -3.054688 3.609375 -2.578125 C 3.953125 -2.097656 4.441406 -1.859375 5.078125 -1.859375 C 5.679688 -1.859375 6.15625 -2.09375 6.5 -2.5625 C 6.851562 -3.039062 7.03125 -3.796875 7.03125 -4.828125 C 7.03125 -5.710938 6.851562 -6.394531 6.5 -6.875 C 6.15625 -7.363281 5.671875 -7.609375 5.046875 -7.609375 C 4.429688 -7.609375 3.953125 -7.363281 3.609375 -6.875 C 3.273438 -6.394531 3.109375 -5.648438 3.109375 -4.640625 Z M 3.109375 -4.640625 "/></g></g></g><g fill="#64ebb6" fill-opacity="1"><g transform="translate(139.579535, 24.526783)"><g><path d="M 3.640625 0 L 1.109375 0 L 1.109375 -13.453125 L 3.640625 -13.453125 Z M 3.640625 0 "/></g></g></g></svg>